<?xml version="1.0" encoding="utf-8"?>
<!-- Generator: Adobe Illustrator 16.0.0, SVG Export Plug-In . SVG Version: 6.00 Build 0)  -->
<!DOCTYPE svg PUBLIC "-//W3C//DTD SVG 1.1//EN" "http://www.w3.org/Graphics/SVG/1.1/DTD/svg11.dtd">
<svg version="1.1" id="Layer_1" xmlns="http://www.w3.org/2000/svg" xmlns:xlink="http://www.w3.org/1999/xlink" x="0px" y="0px"
	 width="653px" height="124px" viewBox="0 0 653 124" enable-background="new 0 0 653 124" xml:space="preserve">
<g>
	<path fill="#E63C2A" d="M310.955,6.145c0-1.011,0.023-1.791,0.069-2.338c0.045-0.547,0.207-0.948,0.482-1.201
		c0.276-0.252,0.713-0.4,1.312-0.442c0.597-0.042,1.448-0.063,2.552-0.063h21.521c3.448,0,6.104,0.063,7.967,0.189
		s3.218,0.559,4.069,1.296c0.851,0.738,1.356,1.886,1.518,3.445c0.161,1.559,0.241,3.792,0.241,6.7c0,2.907-0.08,5.141-0.241,6.7
		c-0.161,1.56-0.667,2.708-1.518,3.445c-0.852,0.738-2.207,1.169-4.069,1.295c-1.862,0.126-4.496,0.19-7.898,0.19l12.899,11.819
		c0.597,0.548,1.045,0.97,1.345,1.264c0.299,0.295,0.448,0.591,0.448,0.885c0,0.211-0.172,0.517-0.518,0.917
		c-0.345,0.401-0.759,0.812-1.241,1.232c-0.482,0.422-0.955,0.79-1.414,1.106c-0.46,0.316-0.782,0.474-0.966,0.474
		c-0.275,0-0.586-0.138-0.931-0.411c-0.346-0.273-0.794-0.664-1.346-1.169L327.648,25.36h-10.071v14.158
		c0,0.758-0.023,1.338-0.068,1.738c-0.047,0.401-0.173,0.695-0.38,0.885c-0.207,0.189-0.529,0.306-0.966,0.348
		c-0.438,0.042-1.069,0.063-1.896,0.063c-0.828,0-1.461-0.021-1.897-0.063c-0.438-0.042-0.759-0.158-0.965-0.348
		c-0.207-0.19-0.335-0.484-0.38-0.885c-0.046-0.4-0.069-0.979-0.069-1.738V6.145z M336.892,19.292c1.793,0,3.173-0.032,4.139-0.095
		c0.965-0.063,1.666-0.273,2.104-0.632c0.437-0.357,0.7-0.905,0.793-1.643c0.092-0.737,0.138-1.801,0.138-3.192
		s-0.046-2.454-0.138-3.192c-0.093-0.737-0.356-1.285-0.793-1.644c-0.438-0.357-1.139-0.569-2.104-0.632
		c-0.966-0.063-2.346-0.095-4.139-0.095h-19.314v11.124H336.892z"/>
	<path fill="#E63C2A" d="M386.003,36.484c0.828,0,1.459,0.022,1.896,0.063c0.437,0.042,0.759,0.158,0.966,0.348
		c0.207,0.189,0.333,0.485,0.38,0.885c0.045,0.401,0.068,0.979,0.068,1.738c0,0.758-0.023,1.338-0.068,1.738
		c-0.047,0.401-0.173,0.695-0.38,0.885c-0.207,0.189-0.529,0.306-0.966,0.348c-0.438,0.042-1.068,0.063-1.896,0.063h-12.14
		c-2.944,0-5.415-0.032-7.416-0.095c-2-0.063-3.655-0.242-4.966-0.537c-1.311-0.294-2.323-0.769-3.035-1.422
		c-0.714-0.653-1.23-1.58-1.552-2.781c-0.322-1.201-0.518-2.718-0.587-4.551c-0.068-1.833-0.104-4.097-0.104-6.794
		c0-2.696,0.035-4.962,0.104-6.794c0.069-1.833,0.265-3.35,0.587-4.551c0.321-1.201,0.838-2.127,1.552-2.781
		c0.712-0.653,1.725-1.127,3.035-1.422c1.311-0.294,2.966-0.474,4.966-0.537c2.001-0.063,4.472-0.095,7.416-0.095
		c2.941,0,5.414,0.032,7.415,0.095c2,0.063,3.655,0.243,4.966,0.537c1.311,0.295,2.321,0.759,3.035,1.391
		c0.713,0.632,1.229,1.507,1.552,2.623c0.321,1.117,0.518,2.528,0.587,4.235c0.068,1.707,0.104,3.803,0.104,6.289
		c0,1.011-0.024,1.792-0.069,2.338c-0.046,0.548-0.207,0.948-0.482,1.201c-0.276,0.253-0.714,0.401-1.311,0.442
		c-0.599,0.042-1.449,0.063-2.553,0.063h-24.28c0,1.77,0.046,3.129,0.138,4.077c0.092,0.948,0.38,1.643,0.862,2.085
		c0.483,0.442,1.242,0.706,2.276,0.79c1.035,0.085,2.518,0.126,4.449,0.126H386.003z M384.899,23.337
		c0-1.77-0.047-3.129-0.138-4.077c-0.093-0.948-0.38-1.643-0.862-2.085c-0.483-0.443-1.242-0.706-2.276-0.79
		c-1.035-0.084-2.518-0.126-4.449-0.126h-6.622c-1.932,0-3.414,0.042-4.449,0.126c-1.034,0.084-1.793,0.347-2.276,0.79
		c-0.482,0.442-0.771,1.138-0.862,2.085c-0.092,0.948-0.138,2.307-0.138,4.077H384.899z"/>
	<path fill="#E63C2A" d="M419.663,36.484c0.966,0,1.701-0.021,2.207-0.063c0.506-0.042,0.885-0.179,1.139-0.411
		c0.252-0.231,0.402-0.579,0.448-1.042c0.045-0.463,0.069-1.138,0.069-2.023c0-0.885-0.024-1.558-0.069-2.022
		c-0.046-0.463-0.196-0.811-0.448-1.043c-0.254-0.231-0.633-0.368-1.139-0.411c-0.506-0.042-1.241-0.063-2.207-0.063h-12.14
		c-2.621,0-4.634-0.052-6.036-0.158c-1.403-0.105-2.438-0.463-3.104-1.075c-0.667-0.61-1.059-1.559-1.173-2.844
		c-0.115-1.285-0.173-3.128-0.173-5.53s0.058-4.245,0.173-5.531c0.114-1.285,0.506-2.233,1.173-2.844
		c0.666-0.61,1.7-0.969,3.104-1.075c1.402-0.104,3.415-0.158,6.036-0.158h18.21c0.827,0,1.459,0.021,1.896,0.063
		c0.437,0.042,0.759,0.158,0.966,0.348c0.207,0.19,0.333,0.485,0.38,0.885c0.045,0.401,0.068,0.98,0.068,1.738
		c0,0.759-0.023,1.338-0.068,1.738c-0.047,0.401-0.173,0.695-0.38,0.885c-0.207,0.19-0.529,0.306-0.966,0.348
		c-0.438,0.042-1.069,0.063-1.896,0.063h-18.21c-0.966,0-1.702,0.021-2.208,0.063c-0.506,0.042-0.886,0.18-1.138,0.411
		c-0.253,0.232-0.403,0.58-0.448,1.043c-0.047,0.464-0.069,1.138-0.069,2.023c0,0.885,0.022,1.559,0.069,2.022
		c0.045,0.464,0.195,0.812,0.448,1.043c0.252,0.232,0.632,0.369,1.138,0.411c0.506,0.042,1.242,0.063,2.208,0.063h12.14
		c2.621,0,4.633,0.053,6.036,0.158c1.401,0.106,2.437,0.464,3.104,1.075c0.666,0.611,1.058,1.559,1.173,2.844
		c0.114,1.286,0.172,3.128,0.172,5.53s-0.058,4.246-0.172,5.531c-0.115,1.286-0.507,2.234-1.173,2.844
		c-0.667,0.611-1.702,0.97-3.104,1.074c-1.403,0.106-3.415,0.158-6.036,0.158H400.35c-0.828,0-1.461-0.021-1.897-0.063
		c-0.438-0.042-0.759-0.158-0.966-0.348c-0.206-0.19-0.334-0.484-0.379-0.885c-0.046-0.4-0.069-0.979-0.069-1.738
		c0-0.759,0.023-1.337,0.069-1.738c0.045-0.4,0.173-0.695,0.379-0.885c0.207-0.19,0.528-0.305,0.966-0.348
		c0.437-0.042,1.069-0.063,1.897-0.063H419.663z"/>
	<path fill="#E63C2A" d="M443.392,16.258h-6.621c-0.828,0-1.461-0.021-1.897-0.063c-0.438-0.042-0.759-0.158-0.966-0.348
		c-0.207-0.189-0.334-0.484-0.379-0.885c-0.047-0.4-0.069-0.979-0.069-1.738c0-0.758,0.022-1.337,0.069-1.738
		c0.045-0.4,0.172-0.695,0.379-0.885c0.207-0.189,0.528-0.305,0.966-0.348c0.437-0.042,1.069-0.063,1.897-0.063h6.621V5.134
		c0-0.758,0.023-1.337,0.069-1.738c0.045-0.4,0.173-0.695,0.38-0.885c0.206-0.189,0.527-0.305,0.965-0.348
		c0.437-0.042,1.069-0.063,1.897-0.063c0.827,0,1.459,0.021,1.896,0.063c0.437,0.042,0.759,0.158,0.966,0.348
		c0.207,0.19,0.333,0.485,0.38,0.885c0.045,0.401,0.068,0.98,0.068,1.738v5.057h6.622c0.828,0,1.459,0.021,1.896,0.063
		c0.437,0.042,0.759,0.158,0.966,0.348c0.207,0.19,0.333,0.485,0.38,0.885c0.045,0.401,0.068,0.98,0.068,1.738
		c0,0.759-0.023,1.338-0.068,1.738c-0.047,0.401-0.173,0.695-0.38,0.885c-0.207,0.19-0.529,0.306-0.966,0.348
		c-0.438,0.042-1.068,0.063-1.896,0.063h-6.622v23.26c0,0.758-0.023,1.338-0.068,1.738c-0.047,0.401-0.173,0.695-0.38,0.885
		c-0.207,0.189-0.529,0.306-0.966,0.348c-0.438,0.042-1.069,0.063-1.896,0.063c-0.828,0-1.461-0.021-1.897-0.063
		c-0.438-0.042-0.759-0.158-0.965-0.348c-0.207-0.19-0.335-0.484-0.38-0.885c-0.046-0.4-0.069-0.979-0.069-1.738V16.258z"/>
	<path fill="#E63C2A" d="M491.952,36.484c0.827,0,1.459,0.022,1.896,0.063c0.437,0.042,0.759,0.158,0.966,0.348
		c0.207,0.189,0.333,0.485,0.38,0.885c0.045,0.401,0.068,0.979,0.068,1.738c0,0.758-0.023,1.338-0.068,1.738
		c-0.047,0.401-0.173,0.695-0.38,0.885c-0.207,0.189-0.529,0.306-0.966,0.348c-0.438,0.042-1.069,0.063-1.896,0.063h-9.933
		c-2.944,0-5.415-0.032-7.416-0.095c-2-0.063-3.655-0.242-4.966-0.537c-1.311-0.294-2.323-0.769-3.035-1.422
		c-0.714-0.653-1.23-1.58-1.552-2.781c-0.322-1.201-0.518-2.718-0.587-4.551c-0.068-1.833-0.104-4.097-0.104-6.794
		c0-2.696,0.035-4.962,0.104-6.794c0.069-1.833,0.265-3.35,0.587-4.551c0.321-1.201,0.838-2.127,1.552-2.781
		c0.712-0.653,1.725-1.127,3.035-1.422c1.311-0.294,2.966-0.474,4.966-0.537c2.001-0.063,4.472-0.095,7.416-0.095h9.933
		c0.827,0,1.459,0.021,1.896,0.063c0.437,0.042,0.759,0.158,0.966,0.348c0.207,0.19,0.333,0.485,0.38,0.885
		c0.045,0.401,0.068,0.98,0.068,1.738c0,0.759-0.023,1.338-0.068,1.738c-0.047,0.401-0.173,0.695-0.38,0.885
		c-0.207,0.19-0.529,0.306-0.966,0.348c-0.438,0.042-1.069,0.063-1.896,0.063h-9.933c-2.76,0-4.887,0.053-6.381,0.158
		c-1.495,0.106-2.587,0.474-3.276,1.106c-0.69,0.632-1.093,1.633-1.207,3.002c-0.115,1.37-0.173,3.318-0.173,5.847
		s0.058,4.478,0.173,5.847c0.114,1.37,0.517,2.37,1.207,3.002c0.689,0.632,1.781,1.001,3.276,1.106
		c1.494,0.105,3.621,0.158,6.381,0.158H491.952z"/>
	<path fill="#E63C2A" d="M518.44,10.19c2.941,0,5.414,0.032,7.415,0.095c2,0.063,3.655,0.243,4.966,0.537
		c1.311,0.295,2.321,0.77,3.035,1.422c0.713,0.654,1.229,1.58,1.552,2.781c0.321,1.201,0.518,2.718,0.587,4.551
		c0.068,1.833,0.104,4.098,0.104,6.794c0,2.697-0.035,4.961-0.104,6.794c-0.069,1.833-0.266,3.35-0.587,4.551
		c-0.322,1.201-0.839,2.128-1.552,2.781c-0.714,0.654-1.725,1.128-3.035,1.422c-1.311,0.295-2.966,0.474-4.966,0.537
		c-2.001,0.063-4.474,0.095-7.415,0.095c-2.944,0-5.415-0.032-7.416-0.095c-2-0.063-3.655-0.242-4.966-0.537
		c-1.311-0.294-2.323-0.769-3.035-1.422c-0.714-0.653-1.23-1.58-1.552-2.781c-0.322-1.201-0.518-2.718-0.587-4.551
		c-0.068-1.833-0.104-4.097-0.104-6.794c0-2.696,0.035-4.962,0.104-6.794c0.069-1.833,0.265-3.35,0.587-4.551
		c0.321-1.201,0.838-2.127,1.552-2.781c0.712-0.653,1.725-1.127,3.035-1.422c1.311-0.294,2.966-0.474,4.966-0.537
		C513.025,10.222,515.496,10.19,518.44,10.19z M529.477,26.371c0-2.528-0.059-4.477-0.173-5.847
		c-0.115-1.369-0.517-2.37-1.207-3.002c-0.689-0.632-1.782-1-3.276-1.106c-1.495-0.104-3.621-0.158-6.38-0.158
		c-2.76,0-4.887,0.053-6.381,0.158c-1.495,0.106-2.587,0.474-3.276,1.106c-0.69,0.632-1.093,1.633-1.207,3.002
		c-0.115,1.37-0.173,3.318-0.173,5.847s0.058,4.478,0.173,5.847c0.114,1.37,0.517,2.37,1.207,3.002
		c0.689,0.632,1.781,1.001,3.276,1.106c1.494,0.105,3.621,0.158,6.381,0.158c2.759,0,4.885-0.052,6.38-0.158
		c1.494-0.105,2.587-0.474,3.276-1.106c0.69-0.632,1.092-1.632,1.207-3.002C529.418,30.849,529.477,28.899,529.477,26.371z"/>
	<path fill="#E63C2A" d="M541.893,14.235c0-1.011,0.022-1.791,0.069-2.338c0.045-0.547,0.206-0.948,0.482-1.201
		c0.275-0.252,0.712-0.4,1.311-0.442c0.597-0.042,1.448-0.063,2.552-0.063h30.902c2.575,0,4.736,0.021,6.484,0.063
		c1.747,0.042,3.195,0.201,4.346,0.474c1.148,0.274,2.034,0.695,2.655,1.264s1.08,1.381,1.38,2.434
		c0.298,1.054,0.471,2.392,0.517,4.013c0.046,1.623,0.069,3.593,0.069,5.91v15.169c0,0.758-0.023,1.338-0.069,1.738
		c-0.046,0.401-0.172,0.695-0.379,0.885c-0.207,0.189-0.529,0.306-0.966,0.348c-0.438,0.042-1.069,0.063-1.896,0.063
		c-0.828,0-1.461-0.021-1.897-0.063c-0.438-0.042-0.759-0.158-0.966-0.348c-0.206-0.19-0.334-0.484-0.379-0.885
		c-0.047-0.4-0.069-0.979-0.069-1.738V24.349c0-2.023-0.046-3.581-0.138-4.677c-0.093-1.095-0.414-1.896-0.966-2.402
		c-0.552-0.506-1.426-0.8-2.621-0.885c-1.196-0.084-2.897-0.126-5.104-0.126h-6.622v23.26c0,0.758-0.023,1.338-0.068,1.738
		c-0.047,0.401-0.173,0.695-0.38,0.885c-0.207,0.189-0.529,0.306-0.966,0.348c-0.438,0.042-1.068,0.063-1.896,0.063
		s-1.46-0.021-1.896-0.063c-0.438-0.042-0.759-0.158-0.966-0.348c-0.207-0.19-0.334-0.484-0.38-0.885
		c-0.046-0.4-0.068-0.979-0.068-1.738v-23.26h-15.451v23.26c0,0.758-0.024,1.338-0.069,1.738c-0.046,0.401-0.173,0.695-0.379,0.885
		c-0.207,0.189-0.529,0.306-0.966,0.348c-0.438,0.042-1.069,0.063-1.897,0.063c-0.827,0-1.46-0.021-1.896-0.063
		c-0.438-0.042-0.759-0.158-0.966-0.348c-0.207-0.19-0.334-0.484-0.379-0.885c-0.047-0.4-0.069-0.979-0.069-1.738V14.235z"/>
	<path fill="#E63C2A" d="M598.454,14.235c0-1.011,0.022-1.791,0.069-2.338c0.045-0.547,0.206-0.948,0.482-1.201
		c0.275-0.252,0.712-0.4,1.311-0.442c0.597-0.042,1.448-0.063,2.552-0.063h30.902c2.575,0,4.736,0.021,6.484,0.063
		c1.747,0.042,3.195,0.201,4.346,0.474c1.148,0.274,2.034,0.695,2.655,1.264s1.08,1.381,1.38,2.434
		c0.298,1.054,0.471,2.392,0.517,4.013c0.046,1.623,0.069,3.593,0.069,5.91v15.169c0,0.758-0.023,1.338-0.069,1.738
		c-0.046,0.401-0.172,0.695-0.379,0.885c-0.207,0.189-0.529,0.306-0.966,0.348c-0.438,0.042-1.069,0.063-1.896,0.063
		c-0.828,0-1.461-0.021-1.897-0.063c-0.438-0.042-0.759-0.158-0.966-0.348c-0.206-0.19-0.334-0.484-0.379-0.885
		c-0.047-0.4-0.069-0.979-0.069-1.738V24.349c0-2.023-0.046-3.581-0.138-4.677c-0.093-1.095-0.414-1.896-0.966-2.402
		c-0.552-0.506-1.426-0.8-2.621-0.885c-1.196-0.084-2.897-0.126-5.104-0.126h-6.622v23.26c0,0.758-0.023,1.338-0.068,1.738
		c-0.047,0.401-0.173,0.695-0.38,0.885c-0.207,0.189-0.529,0.306-0.966,0.348c-0.438,0.042-1.068,0.063-1.896,0.063
		s-1.46-0.021-1.896-0.063c-0.438-0.042-0.759-0.158-0.966-0.348c-0.207-0.19-0.334-0.484-0.38-0.885
		c-0.046-0.4-0.068-0.979-0.068-1.738v-23.26h-15.451v23.26c0,0.758-0.024,1.338-0.069,1.738c-0.046,0.401-0.173,0.695-0.379,0.885
		c-0.207,0.189-0.529,0.306-0.966,0.348c-0.438,0.042-1.069,0.063-1.897,0.063c-0.827,0-1.46-0.021-1.896-0.063
		c-0.438-0.042-0.759-0.158-0.966-0.348c-0.207-0.19-0.334-0.484-0.379-0.885c-0.047-0.4-0.069-0.979-0.069-1.738V14.235z"/>
</g>
<g>
	<path fill="#231F20" d="M110.569,79.733c0-1.366,0.027-2.42,0.085-3.161c0.056-0.738,0.256-1.281,0.598-1.623
		s0.883-0.54,1.623-0.598c0.739-0.056,1.794-0.085,3.16-0.085h38.268c3.188,0,5.864,0.029,8.029,0.085
		c2.163,0.058,3.957,0.271,5.381,0.641c1.423,0.371,2.52,0.939,3.289,1.709c0.769,0.769,1.337,1.865,1.708,3.288
		c0.369,1.425,0.583,3.232,0.641,5.425c0.056,2.192,0.085,4.855,0.085,7.986v20.5c0,1.024-0.029,1.809-0.085,2.349
		c-0.058,0.542-0.214,0.939-0.47,1.196c-0.257,0.256-0.655,0.413-1.196,0.469c-0.542,0.059-1.323,0.086-2.349,0.086
		s-1.809-0.027-2.349-0.086c-0.542-0.056-0.94-0.213-1.196-0.469c-0.256-0.257-0.414-0.654-0.47-1.196
		c-0.058-0.54-0.086-1.324-0.086-2.349V93.4c0-2.734-0.057-4.84-0.17-6.321c-0.115-1.479-0.513-2.562-1.196-3.246
		c-0.684-0.683-1.766-1.081-3.246-1.196c-1.481-0.113-3.587-0.17-6.32-0.17h-8.2V113.9c0,1.024-0.029,1.809-0.086,2.349
		c-0.057,0.542-0.213,0.939-0.47,1.196c-0.256,0.256-0.655,0.413-1.195,0.469c-0.542,0.059-1.324,0.086-2.35,0.086
		c-1.024,0-1.808-0.027-2.349-0.086c-0.542-0.056-0.939-0.213-1.195-0.469c-0.257-0.257-0.414-0.654-0.471-1.196
		c-0.057-0.54-0.085-1.324-0.085-2.349V82.467h-19.134V113.9c0,1.024-0.029,1.809-0.085,2.349c-0.058,0.542-0.214,0.939-0.47,1.196
		c-0.257,0.256-0.655,0.413-1.196,0.469c-0.542,0.059-1.323,0.086-2.349,0.086s-1.809-0.027-2.349-0.086
		c-0.542-0.056-0.94-0.213-1.196-0.469c-0.256-0.257-0.414-0.654-0.47-1.196c-0.058-0.54-0.085-1.324-0.085-2.349V79.733z"/>
	<path fill="#231F20" d="M217.168,109.8c1.025,0,1.808,0.029,2.35,0.085c0.54,0.059,0.939,0.215,1.195,0.471
		c0.257,0.256,0.413,0.654,0.47,1.195c0.057,0.542,0.086,1.324,0.086,2.35c0,1.024-0.029,1.809-0.086,2.349
		c-0.057,0.542-0.213,0.939-0.47,1.196c-0.256,0.256-0.655,0.413-1.195,0.469c-0.542,0.059-1.324,0.086-2.35,0.086h-15.033
		c-3.645,0-6.705-0.043-9.182-0.128c-2.478-0.085-4.527-0.327-6.15-0.726s-2.876-1.039-3.759-1.922s-1.523-2.137-1.922-3.759
		c-0.398-1.623-0.641-3.673-0.726-6.15c-0.086-2.478-0.128-5.537-0.128-9.183c0-3.643,0.042-6.705,0.128-9.182
		c0.085-2.478,0.327-4.527,0.726-6.15s1.039-2.875,1.922-3.758s2.136-1.523,3.759-1.922s3.673-0.641,6.15-0.727
		c2.477-0.086,5.537-0.128,9.182-0.128c3.644,0,6.705,0.042,9.183,0.128s4.527,0.328,6.15,0.727
		c1.622,0.398,2.874,1.024,3.758,1.879c0.883,0.854,1.523,2.037,1.922,3.545c0.397,1.51,0.641,3.416,0.727,5.723
		c0.085,2.307,0.128,5.14,0.128,8.499c0,1.366-0.029,2.421-0.086,3.16c-0.057,0.741-0.256,1.281-0.598,1.623
		s-0.884,0.542-1.623,0.599c-0.74,0.057-1.794,0.085-3.16,0.085h-30.066c0,2.392,0.056,4.228,0.17,5.509s0.471,2.221,1.068,2.819
		c0.598,0.598,1.537,0.954,2.818,1.067c1.281,0.115,3.118,0.171,5.51,0.171H217.168z M215.802,92.033
		c0-2.392-0.058-4.229-0.171-5.51c-0.114-1.281-0.47-2.221-1.067-2.818c-0.599-0.598-1.538-0.953-2.819-1.068
		c-1.281-0.113-3.117-0.17-5.509-0.17h-8.2c-2.392,0-4.229,0.057-5.51,0.17c-1.281,0.115-2.221,0.471-2.818,1.068
		s-0.954,1.537-1.068,2.818s-0.17,3.118-0.17,5.51H215.802z"/>
	<path fill="#231F20" d="M252.701,118c-3.645,0-6.72-0.043-9.225-0.128c-2.507-0.085-4.57-0.327-6.193-0.726
		c-1.622-0.398-2.861-1.039-3.715-1.922c-0.854-0.883-1.495-2.137-1.922-3.759c-0.428-1.623-0.67-3.673-0.727-6.15
		c-0.058-2.478-0.085-5.537-0.085-9.183c0-3.643,0.042-6.705,0.128-9.182c0.085-2.478,0.327-4.527,0.726-6.15
		s1.039-2.875,1.922-3.758s2.136-1.523,3.759-1.922s3.673-0.641,6.15-0.727c2.477-0.086,5.537-0.128,9.182-0.128h13.667v-12.3
		c0-1.025,0.028-1.807,0.085-2.349c0.057-0.54,0.214-0.939,0.471-1.196c0.256-0.256,0.653-0.412,1.195-0.47
		c0.541-0.056,1.324-0.085,2.349-0.085c1.025,0,1.808,0.029,2.35,0.085c0.54,0.058,0.939,0.214,1.195,0.47
		c0.257,0.256,0.413,0.656,0.47,1.196c0.057,0.542,0.086,1.324,0.086,2.349v50.567c0,1.367-0.029,2.422-0.086,3.16
		c-0.057,0.741-0.256,1.281-0.598,1.623s-0.884,0.542-1.623,0.598c-0.74,0.059-1.794,0.086-3.16,0.086H252.701z M266.368,109.8
		V82.467h-13.667c-3.416,0-6.051,0.072-7.9,0.213c-1.852,0.143-3.203,0.641-4.058,1.495s-1.354,2.208-1.495,4.058
		c-0.143,1.852-0.213,4.484-0.213,7.9c0,3.417,0.07,6.052,0.213,7.901c0.142,1.851,0.641,3.203,1.495,4.058
		c0.854,0.854,2.206,1.354,4.058,1.494c1.85,0.143,4.484,0.214,7.9,0.214H266.368z"/>
	<path fill="#231F20" d="M282.512,63.333c0-1.081,0.028-1.907,0.085-2.477c0.057-0.568,0.228-0.996,0.513-1.281
		c0.284-0.284,0.712-0.455,1.281-0.513c0.568-0.056,1.395-0.085,2.478-0.085c1.081,0,1.907,0.03,2.477,0.085
		c0.569,0.058,0.996,0.229,1.281,0.513c0.284,0.286,0.455,0.713,0.513,1.281c0.057,0.57,0.086,1.396,0.086,2.477
		c0,1.083-0.029,1.909-0.086,2.478c-0.058,0.569-0.229,0.996-0.513,1.281c-0.285,0.285-0.712,0.456-1.281,0.512
		c-0.569,0.058-1.396,0.086-2.477,0.086c-1.083,0-1.909-0.028-2.478-0.086c-0.569-0.056-0.997-0.227-1.281-0.512
		c-0.285-0.285-0.456-0.712-0.513-1.281C282.54,65.242,282.512,64.416,282.512,63.333z M282.768,78.367
		c0-1.025,0.028-1.808,0.086-2.35c0.056-0.541,0.214-0.939,0.47-1.195c0.256-0.257,0.654-0.413,1.195-0.471
		c0.541-0.056,1.324-0.085,2.35-0.085c1.024,0,1.807,0.029,2.349,0.085c0.541,0.058,0.939,0.214,1.196,0.471
		c0.256,0.256,0.412,0.654,0.47,1.195c0.056,0.542,0.085,1.324,0.085,2.35V113.9c0,1.024-0.029,1.809-0.085,2.349
		c-0.058,0.542-0.214,0.939-0.47,1.196c-0.257,0.256-0.655,0.413-1.196,0.469c-0.542,0.059-1.324,0.086-2.349,0.086
		c-1.025,0-1.809-0.027-2.35-0.086c-0.541-0.056-0.939-0.213-1.195-0.469c-0.256-0.257-0.414-0.654-0.47-1.196
		c-0.058-0.54-0.086-1.324-0.086-2.349V78.367z"/>
	<path fill="#231F20" d="M334.017,92.033c0-2.392-0.058-4.229-0.171-5.51c-0.114-1.281-0.47-2.221-1.067-2.818
		c-0.599-0.598-1.538-0.953-2.819-1.068c-1.281-0.113-3.117-0.17-5.509-0.17h-19.134c-1.025,0-1.809-0.028-2.349-0.086
		c-0.542-0.056-0.939-0.213-1.196-0.47c-0.256-0.256-0.414-0.653-0.47-1.196c-0.058-0.54-0.085-1.323-0.085-2.348
		c0-1.025,0.027-1.808,0.085-2.35c0.056-0.541,0.214-0.939,0.47-1.195c0.257-0.257,0.654-0.413,1.196-0.471
		c0.54-0.056,1.323-0.085,2.349-0.085h15.033c3.644,0,6.705,0.042,9.183,0.128s4.527,0.328,6.15,0.727
		c1.622,0.398,2.874,1.039,3.758,1.922c0.883,0.883,1.523,2.135,1.922,3.758c0.397,1.623,0.641,3.673,0.727,6.15
		c0.085,2.477,0.128,5.539,0.128,9.182v16.4c0,1.367-0.029,2.422-0.086,3.16c-0.057,0.741-0.256,1.281-0.598,1.623
		s-0.884,0.542-1.623,0.598c-0.74,0.059-1.794,0.086-3.16,0.086h-25.283c-3.246,0-5.738-0.07-7.475-0.213
		c-1.737-0.143-3.019-0.627-3.844-1.453c-0.826-0.824-1.311-2.105-1.452-3.844c-0.143-1.736-0.213-4.228-0.213-7.474
		c0-3.245,0.07-5.736,0.213-7.474c0.142-1.736,0.626-3.018,1.452-3.844c0.825-0.825,2.106-1.31,3.844-1.453
		c1.736-0.141,4.229-0.213,7.475-0.213H334.017z M334.017,109.8v-9.566h-22.55c-1.196,0-2.107,0.029-2.733,0.085
		c-0.628,0.058-1.098,0.243-1.409,0.556c-0.314,0.313-0.5,0.783-0.556,1.409c-0.058,0.627-0.085,1.537-0.085,2.733
		s0.027,2.107,0.085,2.733c0.056,0.627,0.241,1.098,0.556,1.409c0.312,0.313,0.781,0.499,1.409,0.556
		c0.626,0.057,1.537,0.085,2.733,0.085H334.017z"/>
	<path fill="#231F20" d="M401.922,109.8c1.195,0,2.105-0.028,2.733-0.085c0.626-0.057,1.096-0.242,1.409-0.556
		c0.312-0.312,0.498-0.782,0.556-1.409c0.056-0.626,0.085-1.537,0.085-2.733s-0.029-2.106-0.085-2.733
		c-0.058-0.626-0.243-1.096-0.556-1.409c-0.313-0.312-0.783-0.498-1.409-0.556c-0.628-0.056-1.538-0.085-2.733-0.085h-15.033
		c-3.246,0-5.738-0.071-7.475-0.214c-1.737-0.141-3.019-0.626-3.844-1.452c-0.826-0.825-1.311-2.106-1.452-3.844
		c-0.143-1.736-0.213-4.228-0.213-7.474s0.07-5.736,0.213-7.475c0.142-1.736,0.626-3.018,1.452-3.844
		c0.825-0.824,2.106-1.309,3.844-1.451c1.736-0.143,4.229-0.214,7.475-0.214h22.55c1.025,0,1.807,0.029,2.349,0.085
		c0.541,0.058,0.939,0.214,1.196,0.471c0.256,0.256,0.412,0.654,0.47,1.195c0.056,0.542,0.085,1.324,0.085,2.35
		c0,1.024-0.029,1.808-0.085,2.348c-0.058,0.543-0.214,0.94-0.47,1.196c-0.257,0.257-0.655,0.414-1.196,0.47
		c-0.542,0.058-1.323,0.086-2.349,0.086h-22.55c-1.196,0-2.107,0.029-2.733,0.085c-0.628,0.058-1.098,0.243-1.409,0.556
		c-0.314,0.313-0.5,0.783-0.556,1.409c-0.058,0.627-0.085,1.538-0.085,2.733s0.027,2.107,0.085,2.733
		c0.056,0.627,0.241,1.097,0.556,1.409c0.312,0.313,0.781,0.499,1.409,0.555c0.626,0.059,1.537,0.086,2.733,0.086h15.033
		c3.246,0,5.736,0.072,7.474,0.213c1.736,0.144,3.018,0.628,3.844,1.453c0.825,0.826,1.31,2.107,1.452,3.844
		c0.142,1.737,0.214,4.229,0.214,7.474c0,3.246-0.072,5.737-0.214,7.474c-0.143,1.738-0.627,3.02-1.452,3.844
		c-0.826,0.826-2.107,1.311-3.844,1.453c-1.737,0.143-4.228,0.213-7.474,0.213h-23.917c-1.025,0-1.809-0.027-2.349-0.086
		c-0.542-0.056-0.939-0.213-1.196-0.469c-0.256-0.257-0.413-0.654-0.47-1.196c-0.058-0.54-0.085-1.324-0.085-2.349
		c0-1.025,0.027-1.808,0.085-2.35c0.057-0.541,0.214-0.939,0.47-1.195c0.257-0.256,0.654-0.412,1.196-0.471
		c0.54-0.056,1.323-0.085,2.349-0.085H401.922z"/>
	<path fill="#231F20" d="M458.638,109.8c1.025,0,1.808,0.029,2.35,0.085c0.54,0.059,0.939,0.215,1.195,0.471
		c0.257,0.256,0.413,0.654,0.47,1.195c0.057,0.542,0.086,1.324,0.086,2.35c0,1.024-0.029,1.809-0.086,2.349
		c-0.057,0.542-0.213,0.939-0.47,1.196c-0.256,0.256-0.655,0.413-1.195,0.469c-0.542,0.059-1.324,0.086-2.35,0.086h-15.033
		c-3.645,0-6.705-0.043-9.182-0.128c-2.478-0.085-4.527-0.327-6.15-0.726s-2.876-1.039-3.759-1.922s-1.523-2.137-1.922-3.759
		c-0.398-1.623-0.641-3.673-0.726-6.15c-0.086-2.478-0.128-5.537-0.128-9.183c0-3.643,0.042-6.705,0.128-9.182
		c0.085-2.478,0.327-4.527,0.726-6.15s1.039-2.875,1.922-3.758s2.136-1.523,3.759-1.922s3.673-0.641,6.15-0.727
		c2.477-0.086,5.537-0.128,9.182-0.128c3.644,0,6.705,0.042,9.183,0.128s4.527,0.328,6.15,0.727
		c1.622,0.398,2.874,1.024,3.758,1.879c0.883,0.854,1.523,2.037,1.922,3.545c0.397,1.51,0.641,3.416,0.727,5.723
		c0.085,2.307,0.128,5.14,0.128,8.499c0,1.366-0.029,2.421-0.086,3.16c-0.057,0.741-0.256,1.281-0.598,1.623
		s-0.884,0.542-1.623,0.599c-0.74,0.057-1.794,0.085-3.16,0.085h-30.066c0,2.392,0.056,4.228,0.17,5.509s0.471,2.221,1.068,2.819
		c0.598,0.598,1.537,0.954,2.818,1.067c1.281,0.115,3.118,0.171,5.51,0.171H458.638z M457.271,92.033
		c0-2.392-0.058-4.229-0.171-5.51c-0.114-1.281-0.47-2.221-1.067-2.818c-0.599-0.598-1.538-0.953-2.819-1.068
		c-1.281-0.113-3.117-0.17-5.509-0.17h-8.2c-2.392,0-4.229,0.057-5.51,0.17c-1.281,0.115-2.221,0.471-2.818,1.068
		s-0.954,1.537-1.068,2.818s-0.17,3.118-0.17,5.51H457.271z"/>
	<path fill="#231F20" d="M472.646,79.733c0-1.366,0.027-2.42,0.085-3.161c0.056-0.738,0.256-1.281,0.598-1.623
		s0.883-0.54,1.623-0.598c0.739-0.056,1.794-0.085,3.16-0.085h13.667c4.101,0,7.261,0.085,9.481,0.257
		c2.221,0.17,3.844,0.768,4.869,1.793c1.024,1.025,1.623,2.648,1.793,4.869c0.171,2.221,0.257,5.381,0.257,9.48
		c0,1.025-0.029,1.809-0.086,2.35s-0.213,0.939-0.47,1.195c-0.256,0.257-0.655,0.414-1.195,0.471
		c-0.542,0.057-1.324,0.085-2.35,0.085c-1.024,0-1.808-0.028-2.349-0.085c-0.542-0.057-0.939-0.214-1.195-0.471
		c-0.257-0.256-0.414-0.654-0.471-1.195s-0.085-1.324-0.085-2.35c0-2.049-0.043-3.63-0.128-4.74
		c-0.086-1.11-0.385-1.922-0.897-2.434c-0.512-0.514-1.323-0.812-2.434-0.897s-2.691-0.128-4.741-0.128h-10.934V113.9
		c0,1.024-0.029,1.809-0.085,2.349c-0.058,0.542-0.214,0.939-0.47,1.196c-0.257,0.256-0.655,0.413-1.196,0.469
		c-0.542,0.059-1.323,0.086-2.349,0.086s-1.809-0.027-2.349-0.086c-0.542-0.056-0.94-0.213-1.196-0.469
		c-0.256-0.257-0.414-0.654-0.47-1.196c-0.058-0.54-0.085-1.324-0.085-2.349V79.733z"/>
	<path fill="#231F20" d="M515.355,78.367c0-1.025,0.027-1.808,0.085-2.35c0.056-0.541,0.214-0.939,0.47-1.195
		c0.256-0.257,0.654-0.413,1.196-0.471c0.54-0.056,1.323-0.085,2.349-0.085s1.807,0.029,2.349,0.085
		c0.541,0.058,0.939,0.214,1.196,0.471c0.256,0.256,0.412,0.654,0.47,1.195c0.056,0.542,0.085,1.324,0.085,2.35V109.8h10.934
		c3.417,0,6.05-0.071,7.901-0.214c1.85-0.141,3.203-0.641,4.058-1.494c0.854-0.854,1.352-2.207,1.494-4.058
		c0.142-1.85,0.214-4.484,0.214-7.901V78.367c0-1.025,0.028-1.808,0.085-2.35c0.057-0.541,0.214-0.939,0.47-1.195
		c0.257-0.257,0.654-0.413,1.196-0.471c0.54-0.056,1.324-0.085,2.349-0.085c1.025,0,1.808,0.029,2.35,0.085
		c0.54,0.058,0.939,0.214,1.195,0.471c0.257,0.256,0.413,0.654,0.47,1.195c0.057,0.542,0.086,1.324,0.086,2.35v17.766
		c0,3.646-0.043,6.705-0.128,9.183c-0.086,2.478-0.329,4.527-0.727,6.15c-0.399,1.622-1.04,2.876-1.922,3.759
		c-0.884,0.883-2.136,1.523-3.758,1.922c-1.623,0.398-3.674,0.641-6.15,0.726c-2.478,0.085-5.539,0.128-9.183,0.128h-13.667
		c-1.366,0-2.421-0.027-3.16-0.086c-0.74-0.056-1.281-0.256-1.623-0.598s-0.542-0.882-0.598-1.623
		c-0.058-0.738-0.085-1.793-0.085-3.16V78.367z"/>
	<path fill="#231F20" d="M600.088,109.8c1.025,0,1.808,0.029,2.35,0.085c0.54,0.059,0.939,0.215,1.195,0.471
		c0.257,0.256,0.413,0.654,0.47,1.195c0.057,0.542,0.086,1.324,0.086,2.35c0,1.024-0.029,1.809-0.086,2.349
		c-0.057,0.542-0.213,0.939-0.47,1.196c-0.256,0.256-0.655,0.413-1.195,0.469c-0.542,0.059-1.324,0.086-2.35,0.086h-15.033
		c-3.645,0-6.705-0.043-9.182-0.128c-2.478-0.085-4.527-0.327-6.15-0.726s-2.876-1.039-3.759-1.922s-1.523-2.137-1.922-3.759
		c-0.398-1.623-0.641-3.673-0.726-6.15c-0.086-2.478-0.128-5.537-0.128-9.183c0-3.643,0.042-6.705,0.128-9.182
		c0.085-2.478,0.327-4.527,0.726-6.15s1.039-2.875,1.922-3.758s2.136-1.523,3.759-1.922s3.673-0.641,6.15-0.727
		c2.477-0.086,5.537-0.128,9.182-0.128c3.644,0,6.705,0.042,9.183,0.128s4.527,0.328,6.15,0.727
		c1.622,0.398,2.874,1.024,3.758,1.879c0.883,0.854,1.523,2.037,1.922,3.545c0.397,1.51,0.641,3.416,0.727,5.723
		c0.085,2.307,0.128,5.14,0.128,8.499c0,1.366-0.029,2.421-0.086,3.16c-0.057,0.741-0.256,1.281-0.598,1.623
		s-0.884,0.542-1.623,0.599c-0.74,0.057-1.794,0.085-3.16,0.085h-30.066c0,2.392,0.056,4.228,0.17,5.509s0.471,2.221,1.068,2.819
		c0.598,0.598,1.537,0.954,2.818,1.067c1.281,0.115,3.118,0.171,5.51,0.171H600.088z M598.722,92.033
		c0-2.392-0.058-4.229-0.171-5.51c-0.114-1.281-0.47-2.221-1.067-2.818c-0.599-0.598-1.538-0.953-2.819-1.068
		c-1.281-0.113-3.117-0.17-5.509-0.17h-8.2c-2.392,0-4.229,0.057-5.51,0.17c-1.281,0.115-2.221,0.471-2.818,1.068
		s-0.954,1.537-1.068,2.818s-0.17,3.118-0.17,5.51H598.722z"/>
	<path fill="#231F20" d="M614.097,79.733c0-1.366,0.027-2.42,0.085-3.161c0.056-0.738,0.256-1.281,0.598-1.623
		s0.883-0.54,1.623-0.598c0.739-0.056,1.794-0.085,3.16-0.085h13.667c4.101,0,7.261,0.085,9.481,0.257
		c2.221,0.17,3.844,0.768,4.869,1.793c1.024,1.025,1.623,2.648,1.793,4.869c0.171,2.221,0.257,5.381,0.257,9.48
		c0,1.025-0.029,1.809-0.086,2.35s-0.213,0.939-0.47,1.195c-0.256,0.257-0.655,0.414-1.195,0.471
		c-0.542,0.057-1.324,0.085-2.35,0.085c-1.024,0-1.808-0.028-2.349-0.085c-0.542-0.057-0.939-0.214-1.195-0.471
		c-0.257-0.256-0.414-0.654-0.471-1.195s-0.085-1.324-0.085-2.35c0-2.049-0.043-3.63-0.128-4.74
		c-0.086-1.11-0.385-1.922-0.897-2.434c-0.512-0.514-1.323-0.812-2.434-0.897s-2.691-0.128-4.741-0.128h-10.934V113.9
		c0,1.024-0.029,1.809-0.085,2.349c-0.058,0.542-0.214,0.939-0.47,1.196c-0.257,0.256-0.655,0.413-1.196,0.469
		c-0.542,0.059-1.323,0.086-2.349,0.086s-1.809-0.027-2.349-0.086c-0.542-0.056-0.94-0.213-1.196-0.469
		c-0.256-0.257-0.414-0.654-0.47-1.196c-0.058-0.54-0.085-1.324-0.085-2.349V79.733z"/>
</g>
<path fill="#20A5DB" d="M11.357,102.761c0,0.373-0.302,0.675-0.675,0.675H5.121c-0.372,0-0.675-0.302-0.675-0.675V91.625
	c0-0.372,0.303-0.674,0.675-0.674h5.562c0.373,0,0.675,0.302,0.675,0.674V102.761z"/>
<path fill="#20A5DB" d="M22.324,106.922c0,0.372-0.303,0.674-0.675,0.674h-5.616c-0.374,0-0.676-0.302-0.676-0.674V87.464
	c0-0.373,0.302-0.675,0.676-0.675h5.616c0.372,0,0.675,0.302,0.675,0.675V106.922z"/>
<path fill="#20A5DB" d="M44.546,106.922c0,0.372-0.302,0.674-0.674,0.674h-5.618c-0.373,0-0.674-0.302-0.674-0.674V87.464
	c0-0.373,0.301-0.675,0.674-0.675h5.618c0.372,0,0.674,0.302,0.674,0.675V106.922z"/>
<path fill="#20A5DB" d="M66.651,106.922c0,0.372-0.303,0.674-0.675,0.674h-5.617c-0.372,0-0.674-0.302-0.674-0.674V87.464
	c0-0.373,0.302-0.675,0.674-0.675h5.617c0.372,0,0.675,0.302,0.675,0.675V106.922z"/>
<path fill="#20A5DB" d="M88.759,106.922c0,0.373-0.303,0.675-0.675,0.675h-5.618c-0.372,0-0.674-0.302-0.674-0.675V87.464
	c0-0.372,0.302-0.674,0.674-0.674h5.618c0.372,0,0.675,0.302,0.675,0.674V106.922z"/>
<path fill="#20A5DB" d="M99.783,102.761c0,0.373-0.301,0.675-0.674,0.675h-5.562c-0.371,0-0.673-0.302-0.673-0.675V91.625
	c0-0.372,0.302-0.674,0.673-0.674h5.562c0.373,0,0.674,0.302,0.674,0.674V102.761z"/>
<path fill="#20A5DB" d="M33.447,117.326c0,0.372-0.302,0.674-0.674,0.674h-5.562c-0.372,0-0.674-0.302-0.674-0.674V74.979
	c0-0.372,0.302-0.674,0.674-0.674h5.562c0.372,0,0.674,0.302,0.674,0.674V117.326z"/>
<path fill="#20A5DB" d="M55.571,117.326c0,0.372-0.303,0.674-0.675,0.674h-5.561c-0.372,0-0.676-0.302-0.676-0.674V74.979
	c0-0.372,0.304-0.674,0.676-0.674h5.561c0.372,0,0.675,0.302,0.675,0.674V117.326z"/>
<path fill="#20A5DB" d="M77.676,117.326c0,0.372-0.3,0.674-0.674,0.674h-5.561c-0.373,0-0.674-0.302-0.674-0.674V74.979
	c0-0.372,0.301-0.674,0.674-0.674h5.561c0.374,0,0.674,0.302,0.674,0.674V117.326z"/>
</svg>
