<?xml version="1.0" encoding="utf-8"?>
<!-- Generator: Adobe Illustrator 16.0.0, SVG Export Plug-In . SVG Version: 6.00 Build 0)  -->
<!DOCTYPE svg PUBLIC "-//W3C//DTD SVG 1.1//EN" "http://www.w3.org/Graphics/SVG/1.1/DTD/svg11.dtd">
<svg version="1.1" id="Layer_1" xmlns="http://www.w3.org/2000/svg" xmlns:xlink="http://www.w3.org/1999/xlink" x="0px" y="0px"
	 width="445.667px" height="91.667px" viewBox="0 0 445.667 91.667" enable-background="new 0 0 445.667 91.667"
	 xml:space="preserve">
<g>
	<path fill="#E63C2A" d="M2.616,5.61c0-0.697,0.017-1.236,0.051-1.616c0.032-0.377,0.151-0.655,0.352-0.829
		c0.202-0.176,0.52-0.277,0.957-0.307c0.436-0.028,1.057-0.043,1.862-0.043h15.707c2.518,0,4.456,0.043,5.814,0.131
		c1.359,0.086,2.349,0.386,2.97,0.896c0.62,0.509,0.99,1.302,1.108,2.381c0.117,1.077,0.174,2.621,0.174,4.63
		c0,2.009-0.058,3.553-0.174,4.63c-0.118,1.078-0.488,1.872-1.108,2.381c-0.622,0.51-1.611,0.808-2.97,0.896
		c-1.359,0.087-3.281,0.13-5.764,0.13l9.415,8.17c0.435,0.378,0.761,0.669,0.981,0.874c0.219,0.204,0.328,0.407,0.328,0.61
		c0,0.146-0.125,0.358-0.377,0.633c-0.252,0.278-0.555,0.562-0.906,0.853c-0.352,0.29-0.698,0.546-1.032,0.764
		c-0.336,0.219-0.57,0.328-0.705,0.328c-0.201,0-0.428-0.094-0.68-0.284c-0.252-0.189-0.578-0.458-0.981-0.808L14.799,18.892h-7.35
		v9.786c0,0.524-0.017,0.924-0.05,1.201c-0.034,0.278-0.126,0.48-0.278,0.612c-0.15,0.131-0.386,0.212-0.705,0.24
		c-0.319,0.029-0.78,0.045-1.384,0.045c-0.605,0-1.066-0.016-1.385-0.045c-0.319-0.028-0.553-0.108-0.704-0.24
		c-0.15-0.132-0.245-0.334-0.277-0.612c-0.034-0.277-0.051-0.677-0.051-1.201V5.61z M21.545,14.699c1.309,0,2.316-0.022,3.021-0.065
		c0.705-0.044,1.216-0.189,1.536-0.438c0.318-0.248,0.511-0.625,0.577-1.136c0.068-0.509,0.102-1.244,0.102-2.205
		c0-0.962-0.033-1.697-0.102-2.207C26.612,8.14,26.42,7.76,26.102,7.513c-0.32-0.248-0.832-0.394-1.536-0.438
		c-0.704-0.043-1.712-0.064-3.021-0.064H7.449v7.688H21.545z"/>
	<path fill="#E63C2A" d="M57.388,26.581c0.604,0,1.064,0.016,1.384,0.044c0.318,0.029,0.553,0.109,0.704,0.24
		c0.152,0.13,0.243,0.334,0.278,0.612c0.033,0.277,0.049,0.676,0.049,1.201c0,0.524-0.016,0.924-0.049,1.201
		c-0.035,0.278-0.126,0.48-0.278,0.612c-0.151,0.131-0.386,0.212-0.704,0.24c-0.32,0.029-0.78,0.045-1.384,0.045h-8.859
		c-2.15,0-3.953-0.022-5.413-0.066c-1.46-0.043-2.668-0.168-3.625-0.371c-0.956-0.203-1.696-0.531-2.215-0.983
		c-0.521-0.451-0.897-1.093-1.133-1.922c-0.234-0.831-0.377-1.878-0.428-3.144c-0.049-1.268-0.075-2.833-0.075-4.697
		c0-1.863,0.026-3.429,0.075-4.696c0.051-1.267,0.194-2.314,0.428-3.146c0.235-0.83,0.612-1.47,1.133-1.922
		c0.52-0.452,1.259-0.779,2.215-0.983c0.957-0.205,2.165-0.328,3.625-0.372s3.263-0.065,5.413-0.065c2.146,0,3.95,0.021,5.411,0.065
		c1.459,0.043,2.668,0.167,3.625,0.372c0.956,0.204,1.694,0.524,2.215,0.961c0.521,0.436,0.896,1.042,1.132,1.813
		c0.234,0.772,0.378,1.747,0.428,2.926c0.05,1.179,0.076,2.629,0.076,4.347c0,0.699-0.018,1.238-0.051,1.617
		c-0.034,0.378-0.151,0.655-0.353,0.831c-0.201,0.174-0.521,0.277-0.956,0.305c-0.437,0.03-1.058,0.044-1.863,0.044h-17.72
		c0,1.223,0.032,2.163,0.1,2.818c0.068,0.654,0.277,1.136,0.629,1.44c0.354,0.307,0.906,0.488,1.662,0.546
		c0.756,0.059,1.837,0.088,3.248,0.088H57.388z M56.583,17.495c0-1.224-0.034-2.163-0.101-2.818
		c-0.066-0.655-0.277-1.135-0.629-1.442c-0.353-0.306-0.906-0.487-1.661-0.546c-0.755-0.059-1.838-0.088-3.248-0.088h-4.833
		c-1.41,0-2.492,0.029-3.248,0.088c-0.755,0.059-1.308,0.24-1.662,0.546c-0.352,0.307-0.561,0.787-0.629,1.442
		c-0.067,0.655-0.1,1.594-0.1,2.818H56.583z"/>
	<path fill="#E63C2A" d="M81.955,26.581c0.705,0,1.241-0.015,1.61-0.044c0.369-0.029,0.646-0.123,0.831-0.284
		c0.184-0.16,0.294-0.4,0.328-0.721c0.032-0.319,0.05-0.785,0.05-1.398c0-0.611-0.018-1.076-0.05-1.397
		c-0.034-0.321-0.144-0.562-0.328-0.721c-0.185-0.159-0.462-0.254-0.831-0.285c-0.369-0.028-0.906-0.043-1.61-0.043h-8.861
		c-1.912,0-3.381-0.036-4.404-0.109c-1.024-0.072-1.778-0.32-2.265-0.743c-0.486-0.421-0.772-1.077-0.855-1.965
		c-0.084-0.888-0.126-2.162-0.126-3.823c0-1.66,0.042-2.934,0.126-3.823c0.083-0.888,0.369-1.543,0.855-1.966
		c0.487-0.422,1.241-0.669,2.265-0.743c1.023-0.072,2.493-0.108,4.404-0.108h13.291c0.604,0,1.065,0.014,1.385,0.043
		c0.317,0.029,0.553,0.109,0.705,0.24c0.15,0.131,0.241,0.335,0.275,0.611c0.033,0.278,0.051,0.678,0.051,1.203
		c0,0.524-0.018,0.924-0.051,1.201c-0.034,0.277-0.125,0.48-0.275,0.612c-0.152,0.131-0.388,0.211-0.705,0.241
		c-0.32,0.028-0.781,0.042-1.385,0.042H73.093c-0.703,0-1.241,0.016-1.61,0.043c-0.369,0.03-0.646,0.125-0.83,0.285
		c-0.185,0.161-0.294,0.401-0.328,0.721c-0.034,0.321-0.05,0.786-0.05,1.398c0,0.611,0.016,1.077,0.05,1.399
		c0.033,0.319,0.143,0.56,0.328,0.72c0.184,0.161,0.461,0.256,0.83,0.284c0.37,0.029,0.907,0.043,1.61,0.043h8.861
		c1.913,0,3.381,0.038,4.404,0.109c1.024,0.073,1.779,0.322,2.266,0.742c0.486,0.423,0.771,1.078,0.856,1.967
		c0.083,0.888,0.125,2.162,0.125,3.822c0,1.66-0.042,2.934-0.125,3.824c-0.085,0.888-0.371,1.544-0.856,1.965
		c-0.487,0.422-1.242,0.67-2.266,0.743c-1.023,0.073-2.492,0.11-4.404,0.11H67.859c-0.604,0-1.065-0.016-1.385-0.045
		c-0.319-0.028-0.554-0.108-0.705-0.24c-0.15-0.132-0.244-0.334-0.277-0.612c-0.033-0.277-0.05-0.677-0.05-1.201
		c0-0.525,0.018-0.924,0.05-1.201c0.033-0.277,0.127-0.481,0.277-0.612c0.151-0.131,0.386-0.211,0.705-0.24
		c0.319-0.028,0.781-0.044,1.385-0.044H81.955z"/>
	<path fill="#E63C2A" d="M99.271,12.601H94.44c-0.604,0-1.066-0.015-1.385-0.042c-0.32-0.029-0.553-0.11-0.704-0.241
		c-0.152-0.131-0.245-0.334-0.277-0.612c-0.036-0.277-0.051-0.677-0.051-1.201c0-0.525,0.015-0.924,0.051-1.203
		c0.033-0.276,0.125-0.479,0.277-0.611c0.15-0.131,0.384-0.211,0.704-0.24c0.319-0.029,0.781-0.043,1.385-0.043h4.832V4.914
		c0-0.525,0.018-0.925,0.051-1.203C99.355,3.435,99.449,3.23,99.6,3.1c0.151-0.131,0.385-0.211,0.705-0.241
		c0.318-0.028,0.78-0.043,1.384-0.043s1.065,0.015,1.385,0.043c0.319,0.03,0.554,0.11,0.705,0.241
		c0.152,0.13,0.243,0.334,0.277,0.611c0.033,0.278,0.05,0.678,0.05,1.203v3.495h4.833c0.604,0,1.065,0.014,1.384,0.043
		c0.319,0.029,0.554,0.109,0.705,0.24c0.15,0.131,0.243,0.335,0.277,0.611c0.032,0.278,0.049,0.678,0.049,1.203
		c0,0.524-0.017,0.924-0.049,1.201c-0.035,0.277-0.127,0.48-0.277,0.612c-0.151,0.131-0.386,0.211-0.705,0.241
		c-0.319,0.028-0.78,0.042-1.384,0.042h-4.833v16.077c0,0.524-0.017,0.924-0.05,1.201c-0.034,0.278-0.125,0.48-0.277,0.612
		c-0.151,0.131-0.386,0.212-0.705,0.24c-0.32,0.029-0.781,0.045-1.385,0.045s-1.066-0.016-1.384-0.045
		c-0.32-0.028-0.554-0.108-0.705-0.24c-0.151-0.132-0.245-0.334-0.277-0.612c-0.033-0.277-0.051-0.677-0.051-1.201V12.601z"/>
	<path fill="#E63C2A" d="M134.713,26.581c0.604,0,1.063,0.016,1.383,0.044c0.318,0.029,0.555,0.109,0.705,0.24
		c0.151,0.13,0.244,0.334,0.278,0.612c0.032,0.277,0.05,0.676,0.05,1.201c0,0.524-0.018,0.924-0.05,1.201
		c-0.034,0.278-0.127,0.48-0.278,0.612c-0.15,0.131-0.387,0.212-0.705,0.24c-0.32,0.029-0.78,0.045-1.383,0.045h-7.249
		c-2.15,0-3.953-0.022-5.413-0.066c-1.459-0.043-2.668-0.168-3.625-0.371c-0.956-0.203-1.696-0.531-2.214-0.983
		c-0.521-0.451-0.899-1.093-1.133-1.922c-0.235-0.831-0.378-1.878-0.428-3.144c-0.05-1.268-0.076-2.833-0.076-4.697
		c0-1.863,0.025-3.429,0.076-4.696c0.05-1.267,0.193-2.314,0.428-3.146c0.234-0.83,0.612-1.47,1.133-1.922
		c0.519-0.452,1.258-0.779,2.214-0.983c0.957-0.205,2.165-0.328,3.625-0.372c1.46-0.043,3.263-0.065,5.413-0.065h7.249
		c0.604,0,1.063,0.014,1.383,0.043c0.318,0.029,0.555,0.109,0.705,0.24c0.151,0.131,0.244,0.335,0.278,0.611
		c0.032,0.278,0.05,0.678,0.05,1.203c0,0.524-0.018,0.924-0.05,1.201c-0.034,0.277-0.127,0.48-0.278,0.612
		c-0.15,0.131-0.387,0.211-0.705,0.241c-0.32,0.028-0.78,0.042-1.383,0.042h-7.249c-2.014,0-3.567,0.038-4.658,0.11
		c-1.091,0.072-1.888,0.327-2.391,0.765c-0.504,0.436-0.798,1.127-0.881,2.073c-0.084,0.947-0.126,2.294-0.126,4.042
		c0,1.748,0.042,3.095,0.126,4.041c0.083,0.947,0.377,1.639,0.881,2.075c0.503,0.437,1.3,0.692,2.391,0.765
		c1.09,0.073,2.644,0.109,4.658,0.109H134.713z"/>
	<path fill="#E63C2A" d="M154.045,8.408c2.146,0,3.951,0.021,5.411,0.065s2.669,0.167,3.625,0.372
		c0.956,0.204,1.694,0.531,2.215,0.983c0.521,0.452,0.897,1.092,1.132,1.922c0.235,0.831,0.379,1.879,0.429,3.146
		c0.05,1.267,0.076,2.833,0.076,4.696c0,1.865-0.026,3.43-0.076,4.697c-0.05,1.266-0.193,2.313-0.429,3.144
		c-0.234,0.83-0.611,1.472-1.132,1.922c-0.521,0.452-1.259,0.78-2.215,0.983s-2.165,0.328-3.625,0.371
		c-1.46,0.044-3.265,0.066-5.411,0.066c-2.148,0-3.952-0.022-5.412-0.066c-1.459-0.043-2.667-0.168-3.625-0.371
		c-0.956-0.203-1.695-0.531-2.215-0.983c-0.521-0.451-0.898-1.093-1.132-1.922c-0.236-0.831-0.378-1.878-0.429-3.144
		c-0.05-1.268-0.075-2.833-0.075-4.697c0-1.863,0.025-3.429,0.075-4.696c0.051-1.267,0.192-2.314,0.429-3.146
		c0.234-0.83,0.61-1.47,1.132-1.922c0.52-0.452,1.259-0.779,2.215-0.983c0.958-0.205,2.166-0.328,3.625-0.372
		C150.093,8.43,151.896,8.408,154.045,8.408z M162.1,19.591c0-1.747-0.043-3.094-0.127-4.042c-0.084-0.946-0.377-1.637-0.881-2.073
		c-0.503-0.438-1.301-0.693-2.391-0.765c-1.092-0.073-2.643-0.11-4.656-0.11s-3.566,0.038-4.657,0.11
		c-1.091,0.072-1.888,0.327-2.391,0.765c-0.504,0.436-0.797,1.127-0.88,2.073c-0.084,0.947-0.126,2.294-0.126,4.042
		c0,1.748,0.042,3.095,0.126,4.041c0.083,0.947,0.376,1.639,0.88,2.075c0.503,0.437,1.3,0.692,2.391,0.765s2.644,0.109,4.657,0.109
		s3.564-0.036,4.656-0.109c1.09-0.073,1.888-0.328,2.391-0.765c0.504-0.437,0.797-1.128,0.881-2.075
		C162.057,22.687,162.1,21.339,162.1,19.591z"/>
	<path fill="#E63C2A" d="M171.16,11.203c0-0.698,0.018-1.237,0.051-1.616c0.032-0.378,0.151-0.655,0.352-0.831
		c0.202-0.174,0.521-0.276,0.957-0.305c0.436-0.029,1.058-0.043,1.863-0.043h22.553c1.88,0,3.457,0.014,4.733,0.043
		C202.942,8.48,204,8.59,204.84,8.779c0.838,0.19,1.484,0.48,1.938,0.873c0.454,0.395,0.788,0.955,1.008,1.682
		c0.217,0.729,0.343,1.653,0.377,2.774c0.033,1.122,0.051,2.483,0.051,4.085v10.485c0,0.524-0.018,0.924-0.051,1.201
		c-0.034,0.278-0.127,0.48-0.277,0.612c-0.15,0.131-0.387,0.212-0.705,0.24c-0.319,0.029-0.781,0.045-1.383,0.045
		c-0.605,0-1.066-0.016-1.385-0.045c-0.32-0.028-0.555-0.108-0.705-0.24c-0.151-0.132-0.244-0.334-0.277-0.612
		c-0.033-0.277-0.05-0.677-0.05-1.201V18.193c0-1.398-0.034-2.475-0.101-3.233c-0.068-0.757-0.301-1.311-0.705-1.66
		c-0.402-0.35-1.04-0.553-1.914-0.612c-0.872-0.059-2.113-0.088-3.725-0.088h-4.832v16.077c0,0.524-0.018,0.924-0.051,1.201
		c-0.035,0.278-0.125,0.48-0.277,0.612c-0.151,0.131-0.387,0.212-0.704,0.24c-0.319,0.029-0.78,0.045-1.385,0.045
		s-1.065-0.016-1.384-0.045c-0.32-0.028-0.554-0.108-0.705-0.24c-0.151-0.132-0.244-0.334-0.277-0.612
		c-0.034-0.277-0.05-0.677-0.05-1.201V12.601h-11.276v16.077c0,0.524-0.018,0.924-0.051,1.201c-0.033,0.278-0.126,0.48-0.277,0.612
		c-0.15,0.131-0.385,0.212-0.704,0.24c-0.319,0.029-0.78,0.045-1.385,0.045c-0.604,0-1.065-0.016-1.384-0.045
		c-0.32-0.028-0.555-0.108-0.706-0.24c-0.151-0.132-0.244-0.334-0.276-0.612c-0.033-0.277-0.051-0.677-0.051-1.201V11.203z"/>
	<path fill="#E63C2A" d="M212.439,11.203c0-0.698,0.018-1.237,0.053-1.616c0.033-0.378,0.15-0.655,0.351-0.831
		c0.202-0.174,0.521-0.276,0.957-0.305c0.435-0.029,1.058-0.043,1.863-0.043h22.554c1.879,0,3.457,0.014,4.732,0.043
		c1.273,0.029,2.332,0.139,3.172,0.328c0.836,0.19,1.484,0.48,1.938,0.873c0.453,0.395,0.787,0.955,1.006,1.682
		c0.217,0.729,0.344,1.653,0.377,2.774c0.033,1.122,0.051,2.483,0.051,4.085v10.485c0,0.524-0.018,0.924-0.051,1.201
		c-0.033,0.278-0.125,0.48-0.275,0.612c-0.152,0.131-0.387,0.212-0.705,0.24c-0.32,0.029-0.781,0.045-1.385,0.045
		c-0.605,0-1.066-0.016-1.385-0.045c-0.32-0.028-0.555-0.108-0.705-0.24c-0.15-0.132-0.244-0.334-0.275-0.612
		c-0.035-0.277-0.051-0.677-0.051-1.201V18.193c0-1.398-0.033-2.475-0.102-3.233c-0.066-0.757-0.303-1.311-0.705-1.66
		c-0.402-0.35-1.041-0.553-1.912-0.612c-0.873-0.059-2.115-0.088-3.725-0.088h-4.834v16.077c0,0.524-0.018,0.924-0.051,1.201
		c-0.033,0.278-0.125,0.48-0.275,0.612c-0.152,0.131-0.387,0.212-0.707,0.24c-0.318,0.029-0.777,0.045-1.383,0.045
		s-1.066-0.016-1.385-0.045c-0.32-0.028-0.553-0.108-0.705-0.24c-0.148-0.132-0.242-0.334-0.277-0.612
		c-0.033-0.277-0.049-0.677-0.049-1.201V12.601h-11.276v16.077c0,0.524-0.019,0.924-0.05,1.201c-0.034,0.278-0.127,0.48-0.277,0.612
		c-0.15,0.131-0.387,0.212-0.706,0.24c-0.319,0.029-0.78,0.045-1.384,0.045c-0.604,0-1.065-0.016-1.385-0.045
		c-0.319-0.028-0.553-0.108-0.705-0.24c-0.15-0.132-0.242-0.334-0.275-0.612c-0.035-0.277-0.053-0.677-0.053-1.201V11.203z"/>
</g>
<line fill="none" stroke="#20A4D9" stroke-width="5" stroke-linecap="round" stroke-linejoin="round" stroke-miterlimit="10" x1="367.508" y1="64.016" x2="367.508" y2="74.303"/>
<line fill="none" stroke="#20A4D9" stroke-width="5" stroke-linecap="round" stroke-linejoin="round" stroke-miterlimit="10" x1="440.387" y1="64.016" x2="440.387" y2="74.303"/>
<line fill="none" stroke="#20A4D9" stroke-width="5" stroke-linecap="round" stroke-linejoin="round" stroke-miterlimit="10" x1="376.619" y1="60.586" x2="376.619" y2="77.732"/>
<line fill="none" stroke="#20A4D9" stroke-width="5" stroke-linecap="round" stroke-linejoin="round" stroke-miterlimit="10" x1="431.275" y1="60.586" x2="431.275" y2="77.732"/>
<line fill="none" stroke="#20A4D9" stroke-width="5" stroke-linecap="round" stroke-linejoin="round" stroke-miterlimit="10" x1="394.838" y1="60.586" x2="394.838" y2="77.732"/>
<line fill="none" stroke="#20A4D9" stroke-width="5" stroke-linecap="round" stroke-linejoin="round" stroke-miterlimit="10" x1="413.057" y1="60.586" x2="413.057" y2="77.732"/>
<line fill="none" stroke="#20A4D9" stroke-width="5" stroke-linecap="round" stroke-linejoin="round" stroke-miterlimit="10" x1="385.729" y1="50.296" x2="385.729" y2="86.307"/>
<line fill="none" stroke="#20A4D9" stroke-width="5" stroke-linecap="round" stroke-linejoin="round" stroke-miterlimit="10" x1="403.947" y1="50.296" x2="403.947" y2="86.307"/>
<line fill="none" stroke="#20A4D9" stroke-width="5" stroke-linecap="round" stroke-linejoin="round" stroke-miterlimit="10" x1="422.164" y1="50.296" x2="422.164" y2="86.307"/>
<g>
	<path fill="#231F20" d="M2.472,57.648c0-0.887,0.018-1.572,0.055-2.053c0.036-0.48,0.167-0.832,0.388-1.055
		c0.222-0.223,0.574-0.351,1.054-0.388c0.48-0.036,1.165-0.056,2.053-0.056h24.856c2.071,0,3.809,0.02,5.215,0.056
		c1.405,0.037,2.57,0.177,3.495,0.415c0.924,0.242,1.637,0.611,2.137,1.111c0.499,0.498,0.868,1.211,1.109,2.135
		c0.239,0.926,0.378,2.1,0.416,3.524c0.036,1.424,0.055,3.153,0.055,5.188v13.315c0,0.664-0.019,1.174-0.055,1.525
		c-0.038,0.352-0.139,0.609-0.305,0.777c-0.167,0.166-0.426,0.268-0.777,0.305c-0.352,0.037-0.86,0.055-1.526,0.055
		s-1.175-0.018-1.525-0.055c-0.352-0.037-0.611-0.139-0.777-0.305c-0.167-0.168-0.269-0.426-0.305-0.777
		c-0.038-0.352-0.056-0.861-0.056-1.525V66.526c0-1.776-0.037-3.144-0.111-4.106c-0.075-0.961-0.333-1.664-0.777-2.108
		c-0.444-0.443-1.147-0.702-2.108-0.776c-0.962-0.074-2.33-0.111-4.105-0.111h-5.326v20.418c0,0.664-0.019,1.174-0.056,1.525
		c-0.037,0.352-0.139,0.609-0.305,0.777c-0.167,0.166-0.426,0.268-0.776,0.305c-0.353,0.037-0.86,0.055-1.526,0.055
		c-0.666,0-1.174-0.018-1.526-0.055c-0.352-0.037-0.61-0.139-0.776-0.305c-0.167-0.168-0.269-0.426-0.306-0.777
		s-0.055-0.861-0.055-1.525V59.424H7.798v20.418c0,0.664-0.019,1.174-0.055,1.525c-0.037,0.352-0.139,0.609-0.305,0.777
		c-0.167,0.166-0.425,0.268-0.777,0.305c-0.352,0.037-0.859,0.055-1.526,0.055c-0.666,0-1.174-0.018-1.525-0.055
		c-0.352-0.037-0.61-0.139-0.777-0.305c-0.166-0.168-0.269-0.426-0.305-0.777c-0.038-0.352-0.055-0.861-0.055-1.525V57.648z"/>
	<path fill="#231F20" d="M71.713,77.178c0.666,0,1.174,0.02,1.526,0.055c0.351,0.039,0.61,0.141,0.776,0.307
		c0.167,0.166,0.268,0.426,0.305,0.775c0.037,0.354,0.056,0.861,0.056,1.527c0,0.664-0.02,1.174-0.056,1.525
		c-0.037,0.352-0.138,0.609-0.305,0.777c-0.166,0.166-0.425,0.268-0.776,0.305c-0.352,0.037-0.86,0.055-1.526,0.055h-9.765
		c-2.367,0-4.355-0.027-5.963-0.082c-1.609-0.057-2.941-0.213-3.996-0.473c-1.054-0.258-1.868-0.674-2.441-1.248
		c-0.574-0.572-0.99-1.387-1.249-2.441s-0.416-2.385-0.471-3.994c-0.056-1.609-0.083-3.598-0.083-5.965
		c0-2.365,0.027-4.355,0.083-5.963c0.055-1.61,0.212-2.941,0.471-3.996s0.675-1.867,1.249-2.441
		c0.573-0.572,1.387-0.988,2.441-1.248c1.055-0.258,2.386-0.416,3.996-0.472c1.608-0.056,3.596-0.083,5.963-0.083
		c2.367,0,4.355,0.027,5.965,0.083s2.94,0.214,3.995,0.472c1.054,0.26,1.867,0.666,2.441,1.221s0.99,1.323,1.249,2.303
		c0.258,0.98,0.416,2.219,0.472,3.717s0.083,3.339,0.083,5.521c0,0.887-0.02,1.572-0.056,2.053c-0.037,0.48-0.167,0.832-0.389,1.053
		c-0.222,0.223-0.574,0.354-1.054,0.389c-0.481,0.037-1.165,0.057-2.053,0.057H53.071c0,1.553,0.036,2.746,0.11,3.578
		s0.306,1.441,0.694,1.83s0.999,0.621,1.831,0.693c0.833,0.076,2.026,0.111,3.579,0.111H71.713z M70.825,65.639
		c0-1.555-0.038-2.748-0.111-3.58c-0.074-0.832-0.305-1.441-0.693-1.83c-0.389-0.389-0.999-0.619-1.831-0.693
		c-0.833-0.074-2.025-0.111-3.579-0.111h-5.326c-1.553,0-2.747,0.037-3.579,0.111c-0.832,0.074-1.442,0.305-1.831,0.693
		s-0.62,0.998-0.694,1.83s-0.11,2.025-0.11,3.58H70.825z"/>
	<path fill="#231F20" d="M94.793,82.504c-2.368,0-4.365-0.027-5.992-0.082c-1.628-0.057-2.968-0.213-4.023-0.473
		c-1.053-0.258-1.858-0.674-2.413-1.248c-0.555-0.572-0.971-1.387-1.248-2.441c-0.278-1.055-0.436-2.385-0.472-3.994
		c-0.037-1.609-0.055-3.598-0.055-5.965c0-2.365,0.027-4.355,0.083-5.963c0.055-1.61,0.212-2.941,0.471-3.996
		c0.259-1.055,0.675-1.867,1.249-2.441c0.573-0.572,1.387-0.988,2.441-1.248c1.054-0.258,2.385-0.416,3.995-0.472
		c1.609-0.056,3.597-0.083,5.964-0.083h8.877v-7.99c0-0.665,0.019-1.173,0.055-1.525c0.037-0.351,0.139-0.61,0.306-0.777
		c0.167-0.166,0.424-0.268,0.776-0.305c0.352-0.037,0.86-0.056,1.525-0.056c0.667,0,1.174,0.019,1.526,0.056
		c0.351,0.038,0.61,0.139,0.776,0.305c0.167,0.167,0.269,0.426,0.305,0.777c0.037,0.352,0.056,0.86,0.056,1.525v32.845
		c0,0.889-0.019,1.574-0.056,2.053c-0.037,0.482-0.166,0.832-0.388,1.055c-0.222,0.223-0.574,0.352-1.054,0.389
		c-0.481,0.037-1.166,0.055-2.053,0.055H94.793z M103.67,77.178V59.424h-8.877c-2.219,0-3.931,0.047-5.132,0.139
		c-1.203,0.093-2.081,0.416-2.636,0.971c-0.555,0.555-0.879,1.435-0.971,2.637c-0.092,1.202-0.138,2.912-0.138,5.131
		s0.046,3.93,0.138,5.133c0.092,1.201,0.416,2.08,0.971,2.635c0.555,0.555,1.433,0.879,2.636,0.971
		c1.201,0.092,2.913,0.139,5.132,0.139H103.67z"/>
	<path fill="#231F20" d="M114.156,46.996c0-0.703,0.019-1.239,0.055-1.609c0.037-0.37,0.148-0.647,0.333-0.833
		c0.185-0.185,0.462-0.295,0.833-0.333c0.369-0.036,0.906-0.056,1.609-0.056c0.702,0,1.239,0.02,1.608,0.056
		c0.37,0.038,0.647,0.148,0.832,0.333c0.185,0.186,0.296,0.463,0.333,0.833c0.037,0.37,0.056,0.906,0.056,1.609
		c0,0.704-0.019,1.24-0.056,1.609c-0.037,0.37-0.148,0.647-0.333,0.833c-0.185,0.185-0.462,0.296-0.832,0.332
		c-0.37,0.038-0.907,0.056-1.608,0.056c-0.704,0-1.24-0.018-1.609-0.056c-0.37-0.036-0.647-0.147-0.833-0.332
		c-0.185-0.186-0.296-0.462-0.333-0.833C114.175,48.236,114.156,47.7,114.156,46.996z M114.323,56.762
		c0-0.666,0.018-1.175,0.056-1.526c0.036-0.352,0.139-0.61,0.305-0.776c0.166-0.167,0.425-0.269,0.776-0.306
		c0.351-0.036,0.86-0.056,1.526-0.056c0.666,0,1.173,0.02,1.525,0.056c0.351,0.037,0.61,0.139,0.777,0.306
		c0.166,0.166,0.268,0.425,0.305,0.776c0.036,0.352,0.055,0.86,0.055,1.526v23.08c0,0.664-0.019,1.174-0.055,1.525
		c-0.038,0.352-0.139,0.609-0.305,0.777c-0.167,0.166-0.426,0.268-0.777,0.305c-0.352,0.037-0.86,0.055-1.525,0.055
		c-0.667,0-1.175-0.018-1.526-0.055c-0.352-0.037-0.61-0.139-0.776-0.305c-0.167-0.168-0.269-0.426-0.305-0.777
		c-0.038-0.352-0.056-0.861-0.056-1.525V56.762z"/>
	<path fill="#231F20" d="M147.611,65.639c0-1.555-0.038-2.748-0.111-3.58c-0.074-0.832-0.305-1.441-0.693-1.83
		s-0.999-0.619-1.831-0.693s-2.025-0.111-3.579-0.111h-12.428c-0.666,0-1.174-0.018-1.525-0.055
		c-0.352-0.037-0.61-0.139-0.777-0.306s-0.269-0.425-0.305-0.777c-0.038-0.351-0.055-0.859-0.055-1.524
		c0-0.666,0.018-1.175,0.055-1.526c0.036-0.352,0.139-0.61,0.305-0.776c0.167-0.167,0.425-0.269,0.777-0.306
		c0.351-0.036,0.86-0.056,1.525-0.056h9.765c2.367,0,4.355,0.027,5.965,0.083s2.941,0.214,3.995,0.472
		c1.054,0.26,1.867,0.676,2.44,1.248c0.573,0.574,0.989,1.387,1.249,2.441c0.258,1.055,0.416,2.386,0.472,3.996
		c0.056,1.607,0.083,3.598,0.083,5.963v10.652c0,0.889-0.02,1.574-0.056,2.053c-0.037,0.482-0.167,0.832-0.388,1.055
		c-0.223,0.223-0.574,0.352-1.055,0.389c-0.481,0.037-1.166,0.055-2.053,0.055h-16.423c-2.108,0-3.727-0.045-4.855-0.139
		c-1.128-0.092-1.961-0.406-2.497-0.943c-0.536-0.535-0.851-1.367-0.943-2.496c-0.093-1.129-0.138-2.746-0.138-4.855
		c0-2.107,0.045-3.725,0.138-4.854c0.092-1.128,0.407-1.96,0.943-2.496c0.536-0.537,1.369-0.852,2.497-0.944
		c1.128-0.091,2.747-0.138,4.855-0.138H147.611z M147.611,77.178v-6.213h-14.647c-0.777,0-1.369,0.018-1.775,0.055
		c-0.408,0.037-0.713,0.158-0.916,0.361c-0.204,0.203-0.325,0.508-0.36,0.914c-0.038,0.408-0.056,1-0.056,1.775
		c0,0.777,0.018,1.369,0.056,1.775c0.036,0.408,0.156,0.715,0.36,0.916c0.203,0.203,0.508,0.324,0.916,0.361
		c0.407,0.037,0.999,0.055,1.775,0.055H147.611z"/>
	<path fill="#231F20" d="M191.719,77.178c0.776,0,1.367-0.018,1.775-0.055c0.406-0.037,0.711-0.158,0.915-0.361
		c0.203-0.201,0.323-0.508,0.361-0.916c0.036-0.406,0.055-0.998,0.055-1.775c0-0.775-0.019-1.367-0.055-1.775
		c-0.038-0.406-0.158-0.711-0.361-0.914c-0.204-0.203-0.509-0.324-0.915-0.361c-0.408-0.037-0.999-0.055-1.775-0.055h-9.765
		c-2.108,0-3.728-0.047-4.855-0.141c-1.128-0.09-1.96-0.406-2.497-0.941c-0.536-0.537-0.851-1.369-0.943-2.498
		c-0.092-1.127-0.138-2.745-0.138-4.854s0.046-3.727,0.138-4.855c0.093-1.127,0.407-1.96,0.943-2.496
		c0.537-0.535,1.369-0.85,2.497-0.943c1.128-0.092,2.747-0.139,4.855-0.139h14.647c0.665,0,1.173,0.02,1.525,0.056
		c0.352,0.037,0.609,0.139,0.776,0.306c0.166,0.166,0.268,0.425,0.306,0.776c0.035,0.352,0.055,0.86,0.055,1.526
		c0,0.665-0.02,1.174-0.055,1.524c-0.038,0.353-0.14,0.61-0.306,0.777c-0.167,0.167-0.425,0.269-0.776,0.306
		c-0.353,0.037-0.86,0.055-1.525,0.055h-14.647c-0.777,0-1.369,0.02-1.776,0.056c-0.407,0.037-0.713,0.157-0.915,0.36
		c-0.204,0.204-0.325,0.51-0.36,0.916c-0.038,0.407-0.056,0.999-0.056,1.775c0,0.775,0.018,1.369,0.056,1.775
		c0.035,0.407,0.156,0.713,0.36,0.915c0.202,0.204,0.508,0.325,0.915,0.36c0.407,0.038,0.999,0.057,1.776,0.057h9.765
		c2.108,0,3.726,0.047,4.854,0.138c1.128,0.093,1.96,0.407,2.496,0.944c0.536,0.536,0.851,1.368,0.944,2.496
		c0.092,1.129,0.139,2.746,0.139,4.854c0,2.109-0.047,3.727-0.139,4.855c-0.094,1.129-0.408,1.961-0.944,2.496
		c-0.536,0.537-1.368,0.852-2.496,0.943c-1.129,0.094-2.746,0.139-4.854,0.139h-15.535c-0.666,0-1.175-0.018-1.525-0.055
		c-0.353-0.037-0.61-0.139-0.777-0.305c-0.166-0.168-0.269-0.426-0.305-0.777c-0.038-0.352-0.056-0.861-0.056-1.525
		c0-0.666,0.018-1.174,0.056-1.527c0.036-0.35,0.139-0.609,0.305-0.775c0.167-0.166,0.425-0.268,0.777-0.307
		c0.351-0.035,0.859-0.055,1.525-0.055H191.719z"/>
	<path fill="#231F20" d="M228.559,77.178c0.666,0,1.174,0.02,1.525,0.055c0.352,0.039,0.611,0.141,0.777,0.307
		s0.268,0.426,0.305,0.775c0.035,0.354,0.055,0.861,0.055,1.527c0,0.664-0.02,1.174-0.055,1.525
		c-0.037,0.352-0.139,0.609-0.305,0.777c-0.166,0.166-0.426,0.268-0.777,0.305s-0.859,0.055-1.525,0.055h-9.766
		c-2.367,0-4.355-0.027-5.963-0.082c-1.609-0.057-2.941-0.213-3.996-0.473c-1.054-0.258-1.867-0.674-2.441-1.248
		c-0.573-0.572-0.989-1.387-1.248-2.441s-0.416-2.385-0.472-3.994s-0.083-3.598-0.083-5.965c0-2.365,0.027-4.355,0.083-5.963
		c0.056-1.61,0.213-2.941,0.472-3.996s0.675-1.867,1.248-2.441c0.574-0.572,1.388-0.988,2.441-1.248
		c1.055-0.258,2.387-0.416,3.996-0.472c1.607-0.056,3.596-0.083,5.963-0.083s4.355,0.027,5.965,0.083s2.941,0.214,3.994,0.472
		c1.055,0.26,1.867,0.666,2.441,1.221c0.572,0.555,0.99,1.323,1.248,2.303c0.258,0.98,0.416,2.219,0.473,3.717
		c0.055,1.498,0.082,3.339,0.082,5.521c0,0.887-0.02,1.572-0.055,2.053c-0.037,0.48-0.168,0.832-0.389,1.053
		c-0.223,0.223-0.574,0.354-1.055,0.389c-0.48,0.037-1.166,0.057-2.053,0.057h-19.529c0,1.553,0.037,2.746,0.111,3.578
		s0.305,1.441,0.693,1.83s0.998,0.621,1.83,0.693c0.833,0.076,2.026,0.111,3.58,0.111H228.559z M227.67,65.639
		c0-1.555-0.037-2.748-0.111-3.58s-0.305-1.441-0.693-1.83s-0.998-0.619-1.83-0.693s-2.025-0.111-3.578-0.111h-5.326
		c-1.554,0-2.747,0.037-3.58,0.111c-0.832,0.074-1.441,0.305-1.83,0.693s-0.619,0.998-0.693,1.83s-0.111,2.025-0.111,3.58H227.67z"
		/>
	<path fill="#231F20" d="M237.656,57.648c0-0.887,0.018-1.572,0.057-2.053c0.035-0.48,0.166-0.832,0.389-1.055
		c0.221-0.223,0.572-0.351,1.053-0.388c0.48-0.036,1.166-0.056,2.053-0.056h8.877c2.664,0,4.717,0.056,6.16,0.167
		c1.441,0.11,2.496,0.499,3.162,1.165s1.055,1.72,1.164,3.162c0.111,1.443,0.168,3.495,0.168,6.158c0,0.666-0.02,1.175-0.057,1.525
		c-0.037,0.353-0.139,0.611-0.305,0.777s-0.426,0.269-0.777,0.306c-0.352,0.036-0.859,0.056-1.525,0.056s-1.174-0.02-1.525-0.056
		c-0.352-0.037-0.611-0.14-0.777-0.306s-0.268-0.425-0.305-0.777c-0.037-0.351-0.055-0.859-0.055-1.525
		c0-1.331-0.029-2.357-0.084-3.079c-0.057-0.722-0.25-1.248-0.582-1.581c-0.334-0.334-0.861-0.527-1.582-0.582
		c-0.721-0.056-1.748-0.084-3.08-0.084h-7.102v20.418c0,0.664-0.018,1.174-0.055,1.525s-0.139,0.609-0.305,0.777
		c-0.168,0.166-0.426,0.268-0.777,0.305s-0.859,0.055-1.525,0.055s-1.176-0.018-1.525-0.055c-0.352-0.037-0.611-0.139-0.777-0.305
		c-0.166-0.168-0.27-0.426-0.305-0.777c-0.039-0.352-0.057-0.861-0.057-1.525V57.648z"/>
	<path fill="#231F20" d="M265.398,56.762c0-0.666,0.018-1.175,0.055-1.526s0.139-0.61,0.305-0.776
		c0.168-0.167,0.426-0.269,0.777-0.306c0.352-0.036,0.859-0.056,1.525-0.056s1.174,0.02,1.527,0.056
		c0.35,0.037,0.609,0.139,0.777,0.306c0.166,0.166,0.266,0.425,0.305,0.776c0.035,0.352,0.055,0.86,0.055,1.526v20.416h7.102
		c2.219,0,3.93-0.047,5.133-0.139c1.201-0.092,2.08-0.416,2.635-0.971s0.879-1.434,0.971-2.635c0.092-1.203,0.139-2.914,0.139-5.133
		V56.762c0-0.666,0.02-1.175,0.057-1.526c0.035-0.352,0.139-0.61,0.305-0.776c0.166-0.167,0.424-0.269,0.777-0.306
		c0.35-0.036,0.859-0.056,1.525-0.056s1.174,0.02,1.525,0.056c0.352,0.037,0.611,0.139,0.777,0.306
		c0.166,0.166,0.268,0.425,0.305,0.776c0.035,0.352,0.055,0.86,0.055,1.526v11.539c0,2.367-0.027,4.355-0.082,5.965
		c-0.057,1.609-0.215,2.939-0.473,3.994c-0.26,1.055-0.676,1.869-1.248,2.441c-0.574,0.574-1.387,0.99-2.441,1.248
		c-1.055,0.26-2.385,0.416-3.994,0.473c-1.609,0.055-3.598,0.082-5.965,0.082h-8.877c-0.889,0-1.574-0.018-2.053-0.055
		c-0.48-0.037-0.832-0.166-1.055-0.389s-0.352-0.572-0.389-1.055c-0.037-0.479-0.055-1.164-0.055-2.053V56.762z"/>
	<path fill="#231F20" d="M320.436,77.178c0.666,0,1.176,0.02,1.527,0.055c0.35,0.039,0.609,0.141,0.775,0.307
		c0.168,0.166,0.268,0.426,0.305,0.775c0.037,0.354,0.057,0.861,0.057,1.527c0,0.664-0.02,1.174-0.057,1.525
		s-0.137,0.609-0.305,0.777c-0.166,0.166-0.426,0.268-0.775,0.305c-0.352,0.037-0.861,0.055-1.527,0.055h-9.764
		c-2.367,0-4.355-0.027-5.965-0.082c-1.609-0.057-2.939-0.213-3.994-0.473c-1.055-0.258-1.869-0.674-2.441-1.248
		c-0.574-0.572-0.99-1.387-1.25-2.441c-0.258-1.055-0.414-2.385-0.471-3.994c-0.055-1.609-0.082-3.598-0.082-5.965
		c0-2.365,0.027-4.355,0.082-5.963c0.057-1.61,0.213-2.941,0.471-3.996c0.26-1.055,0.676-1.867,1.25-2.441
		c0.572-0.572,1.387-0.988,2.441-1.248c1.055-0.258,2.385-0.416,3.994-0.472s3.598-0.083,5.965-0.083
		c2.365,0,4.354,0.027,5.963,0.083s2.941,0.214,3.996,0.472c1.053,0.26,1.867,0.666,2.441,1.221c0.572,0.555,0.99,1.323,1.248,2.303
		c0.258,0.98,0.416,2.219,0.471,3.717c0.057,1.498,0.084,3.339,0.084,5.521c0,0.887-0.02,1.572-0.057,2.053
		c-0.035,0.48-0.166,0.832-0.387,1.053c-0.223,0.223-0.574,0.354-1.055,0.389c-0.48,0.037-1.166,0.057-2.053,0.057h-19.529
		c0,1.553,0.035,2.746,0.109,3.578s0.307,1.441,0.695,1.83c0.387,0.389,0.998,0.621,1.83,0.693c0.832,0.076,2.025,0.111,3.578,0.111
		H320.436z M319.549,65.639c0-1.555-0.037-2.748-0.111-3.58s-0.305-1.441-0.693-1.83s-0.998-0.619-1.83-0.693
		s-2.025-0.111-3.578-0.111h-5.328c-1.553,0-2.746,0.037-3.578,0.111s-1.443,0.305-1.83,0.693c-0.389,0.389-0.621,0.998-0.695,1.83
		s-0.109,2.025-0.109,3.58H319.549z"/>
	<path fill="#231F20" d="M329.535,57.648c0-0.887,0.018-1.572,0.057-2.053c0.035-0.48,0.166-0.832,0.387-1.055
		c0.223-0.223,0.574-0.351,1.055-0.388c0.48-0.036,1.164-0.056,2.053-0.056h8.877c2.664,0,4.717,0.056,6.158,0.167
		c1.443,0.11,2.498,0.499,3.164,1.165c0.664,0.666,1.053,1.72,1.164,3.162c0.111,1.443,0.166,3.495,0.166,6.158
		c0,0.666-0.02,1.175-0.055,1.525c-0.037,0.353-0.139,0.611-0.305,0.777s-0.426,0.269-0.777,0.306
		c-0.352,0.036-0.859,0.056-1.525,0.056s-1.174-0.02-1.525-0.056c-0.354-0.037-0.611-0.14-0.777-0.306s-0.27-0.425-0.307-0.777
		c-0.035-0.351-0.055-0.859-0.055-1.525c0-1.331-0.027-2.357-0.082-3.079c-0.057-0.722-0.25-1.248-0.584-1.581
		c-0.332-0.334-0.859-0.527-1.58-0.582c-0.723-0.056-1.748-0.084-3.08-0.084h-7.102v20.418c0,0.664-0.02,1.174-0.055,1.525
		c-0.037,0.352-0.139,0.609-0.307,0.777c-0.166,0.166-0.424,0.268-0.777,0.305c-0.35,0.037-0.857,0.055-1.525,0.055
		c-0.666,0-1.174-0.018-1.525-0.055s-0.611-0.139-0.775-0.305c-0.166-0.168-0.27-0.426-0.305-0.777
		c-0.039-0.352-0.057-0.861-0.057-1.525V57.648z"/>
</g>
</svg>
